<?xml version="1.0" encoding="UTF-8"?>
<svg xmlns="http://www.w3.org/2000/svg" version="1.1" viewBox="0 0 368 201">
  <defs>
    <style>
      .cls-1 {
        fill: #1d1d1b;
      }
    </style>
  </defs>
  <!-- Generator: Adobe Illustrator 28.6.0, SVG Export Plug-In . SVG Version: 1.2.0 Build 709)  -->
  <g>
    <g id="katman_1">
      <path id="Path_0" class="cls-1" d="M230,31.5c-3.6.8-10.3,3.3-15,5.7-8.3,4.1-9.5,5.2-59,54.4-35.2,35-52.5,51.4-57,54.3-3.6,2.3-9,5.1-12,6.3-3.3,1.2-9.1,2.3-14.5,2.6-7,.4-10.1.2-13.8-1.1-2.6-1-5.6-2.9-6.7-4.4-1.5-2-2.1-4.3-2-7.8,0-3.8.7-6.1,2.9-9.5,1.6-2.5,24.3-25.9,50.4-52,26.2-26.1,47.4-47.8,47.1-48.2-.2-.5-7.7-.8-16.6-.8-16.1,0-16.4,0-22.3,2.9-5.1,2.5-11.9,8.9-43.6,40.8-25.4,25.5-39,39.9-41.8,44.3-2.3,3.6-4.9,9-5.8,12-1.1,3.8-1.4,8.1-1.1,14,.3,6.8,1,9.8,3.4,15,1.6,3.6,4.8,8.3,6.9,10.5,2.2,2.3,6,5.3,8.5,6.8,2.5,1.4,8.1,3.5,12.5,4.7,5.6,1.4,11.2,2,18.5,2s13-.6,20-2.4c5.2-1.3,12.4-3.8,16-5.6s9.2-5.1,12.5-7.3c3.3-2.3,11.8-9.8,18.9-16.7,7.1-6.9,16.8-16.4,21.5-21.1,4.7-4.7,21.7-21.8,37.7-38,17.6-17.8,30.6-30.2,33-31.3,3.3-1.7,7.3-2.1,24.9-2.9,11.6-.4,25.2-.7,30.3-.5,8,.3,9.6.6,10.8,2.3.8,1.1,1.4,3.1,1.4,4.5s-7.5,9.9-32.8,35.3c-18,18-33,32.7-33.5,32.7s-.7-8.8-.7-19.5-.3-19.5-1.3-19.5-6.4,5.3-12.8,11.7c-10.3,10.4-11.9,12.5-13.3,17.3-1.3,4.3-1.6,10.1-1.6,27s.2,21.9,2,25.8c1.2,2.5,3.2,4.8,5,5.7,1.7.8,4.8,1.5,7,1.5s5.2-.5,6.7-1.1c1.6-.6,11.5-9.7,22.1-20.2,10.6-10.6,19.7-19.3,20.2-19.4.6-.2,9.2,7.8,19.2,17.6,12.4,12.1,19.8,18.6,22.8,20,4,1.8,6.5,2.1,21.2,2.1s16.8-.3,16.8-1.2c-.1-.7-13-14.2-28.8-30-15.8-15.9-28.8-29.4-29-30-.2-.7,7-8.7,16-17.8,13.7-13.8,17-17.7,19.9-23.5,3-6.2,3.4-7.8,3.4-15-.1-6.5-.6-9.1-2.8-14-1.5-3.3-4.6-7.9-6.9-10.2-2.4-2.3-6.8-5.4-9.8-7l-5.5-2.8c-55.5-.3-64.5-.1-69.5,1h0Z"/>
      <path class="cls-1" d="M351.3,117.9l-22.5-24.1c-2-2.1-5.6-.7-5.6,2.2v48.1c0,2.9,3.6,4.3,5.6,2.2l22.5-24.1c1.2-1.2,1.2-3.2,0-4.4Z"/>
    </g>
  </g>
</svg>